<svg width="649" height="746" viewBox="0 0 649 746" fill="none" xmlns="http://www.w3.org/2000/svg">
<g clip-path="url(#clip0_1_1931)">
<rect width="648.164" height="746" rx="13.9766" fill="#1E00B9"/>
<g clip-path="url(#clip1_1_1931)">
<path d="M512.462 105.789H135.398V439.728H512.462V105.789Z" fill="#1E00B9"/>
<path d="M437.529 285.935C441.785 290.191 441.139 297.279 436.172 300.666C430.387 304.605 424.063 307.425 417.514 309.138C407.448 311.773 396.841 311.773 386.787 309.138C380.239 307.425 373.914 304.605 368.13 300.666C363.162 297.279 362.517 290.191 366.773 285.935C366.812 285.895 366.865 285.842 366.904 285.803C370.132 282.575 375.218 282.008 378.987 284.578C382.94 287.265 387.248 289.202 391.715 290.362C398.554 292.154 405.761 292.154 412.599 290.362C417.066 289.189 421.375 287.265 425.328 284.578C429.096 282.008 434.182 282.575 437.41 285.79L437.542 285.922L437.529 285.935Z" fill="#1EFFBC"/>
<path d="M435.935 238.802C430.074 232.941 420.572 232.941 414.711 238.802C408.85 244.663 408.85 254.165 414.711 260.026C420.572 265.887 430.074 265.887 435.935 260.026C441.796 254.165 441.796 244.663 435.935 238.802Z" fill="#1EFFBC"/>
<path d="M389.545 238.798C383.684 232.937 374.182 232.937 368.321 238.798C362.46 244.659 362.46 254.162 368.321 260.022C374.182 265.883 383.684 265.883 389.545 260.022C395.406 254.162 395.406 244.659 389.545 238.798Z" fill="#1EFFBC"/>
<path d="M345.506 263.641H335.545V253.679C335.545 248.172 331.078 243.718 325.584 243.718C320.076 243.718 315.623 248.185 315.623 253.679V263.641H305.661C300.154 263.641 295.7 268.107 295.7 273.602C295.7 279.109 300.167 283.563 305.661 283.563H315.623V293.524C315.623 299.032 320.089 303.485 325.584 303.485C331.092 303.485 335.545 299.019 335.545 293.524V283.563H345.506C351.014 283.563 355.468 279.096 355.468 273.602C355.468 268.094 351.001 263.641 345.506 263.641Z" fill="white"/>
<path d="M284.421 285.935C288.677 290.191 288.032 297.279 283.064 300.666C277.28 304.605 270.955 307.425 264.407 309.138C254.34 311.773 243.733 311.773 233.68 309.138C227.131 307.425 220.807 304.605 215.022 300.666C210.055 297.279 209.409 290.191 213.665 285.935C213.705 285.895 213.757 285.843 213.797 285.803C217.025 282.575 222.111 282.008 225.879 284.578C229.648 287.147 234.141 289.202 238.608 290.362C245.446 292.154 252.654 292.154 259.492 290.362C263.959 289.189 268.267 287.266 272.22 284.578C275.989 282.008 281.075 282.575 284.303 285.79L284.435 285.922L284.421 285.935Z" fill="#FFE155"/>
<path d="M282.843 238.8C276.982 232.939 267.479 232.939 261.618 238.8C255.758 244.661 255.758 254.164 261.618 260.024C267.479 265.885 276.982 265.885 282.843 260.024C288.703 254.164 288.703 244.661 282.843 238.8Z" fill="#FFE155"/>
<path d="M236.443 238.806C230.582 232.945 221.08 232.945 215.219 238.806C209.358 244.667 209.358 254.169 215.219 260.03C221.08 265.891 230.582 265.891 236.443 260.03C242.304 254.169 242.304 244.667 236.443 238.806Z" fill="#FFE155"/>
</g>
</g>
<defs>
<clipPath id="clip0_1_1931">
<rect width="648.164" height="746" rx="13.9766" fill="white"/>
</clipPath>
<clipPath id="clip1_1_1931">
<rect width="377.064" height="333.938" fill="white" transform="translate(135.398 105.789)"/>
</clipPath>
</defs>
</svg>
